<?xml version="1.0" encoding="utf-8"?>
<!-- Generator: Adobe Illustrator 19.0.0, SVG Export Plug-In . SVG Version: 6.00 Build 0)  -->
<svg version="1.1" id="Layer_1" xmlns="http://www.w3.org/2000/svg" xmlns:xlink="http://www.w3.org/1999/xlink" x="0px" y="0px"
	 viewBox="0 0 326.8 136.4" style="enable-background:new 0 0 326.8 136.4;" xml:space="preserve">
<g id="Logo_2_">
	<g id="P_4_">
		<path id="XMLID_50_" d="M47.4,76.9c-0.6,0-1.1-0.2-1.6-0.5c-1.4-0.9-1.8-2.8-0.9-4.1c2.6-4.1,6.1-7.8,9.4-11.4
			c1.7-1.8,3.3-3.5,4.8-5.2c5.3-6.2,9.7-11.5,13.7-16.6c4.3-5.4,8.8-11.1,12-17.5c0.9-1.9,1.9-4.1,2.2-6.4c0.2-2-0.2-3.9-1.2-5.2
			c-1-1.2-2.7-2.1-5.3-2.8C76.8,6.3,72.7,5.9,67.7,6c-21.5,0.6-42.3,9.9-57,25.7c-2,2.2-3.7,4.4-5.1,6.7c-0.9,1.4-2.7,1.9-4.1,1
			c-1.4-0.9-1.8-2.7-1-4.1c1.6-2.7,3.6-5.2,5.9-7.6C22.1,10.7,44.4,0.6,67.5,0c5.6-0.1,10.2,0.3,14.4,1.4c2.5,0.6,6.1,1.9,8.5,4.9
			c2,2.5,2.9,6,2.5,9.6c-0.4,3.2-1.7,6.2-2.8,8.4c-3.5,6.9-8.1,12.9-12.6,18.6C73.4,48,69,53.3,63.6,59.6c-1.6,1.8-3.3,3.7-4.9,5.4
			c-3.2,3.4-6.4,6.9-8.8,10.5C49.3,76.4,48.4,76.9,47.4,76.9z"/>
	</g>
	<g id="P_1_">
		<path id="XMLID_49_" d="M37.2,136.4c-0.3,0-0.6,0-0.9-0.1c-1.6-0.5-2.5-2.2-2-3.7c4.7-15.4,7.5-28,8.9-39.8
			c1.7-14.4,1.3-29.2,0.9-43.6c-0.2-9.2-0.5-18.8-0.2-28.2c0.1-1.7,1.4-2.9,3.1-2.9c1.7,0.1,3,1.4,2.9,3.1c-0.3,9.3,0,18.7,0.2,27.9
			c0.4,14.6,0.8,29.6-1,44.4c-1.4,12.2-4.3,25.2-9.1,40.9C39.6,135.6,38.4,136.4,37.2,136.4z"/>
	</g>
	<g id="K_4_">
		<path id="XMLID_48_" d="M54.9,131.8c-0.2,0-0.4,0-0.6-0.1c-1.6-0.3-2.7-1.9-2.3-3.5c7.7-37.4,10.7-75.6,8.9-113.7
			c-0.1-1.7,1.2-3.1,2.9-3.1c1.6-0.1,3.1,1.2,3.1,2.9c1.8,38.6-1.2,77.4-9,115.2C57.5,130.8,56.3,131.8,54.9,131.8z"/>
	</g>
	<g id="K_1_">
		<path id="XMLID_47_" d="M144.1,118.9c-0.2,0-0.4,0-0.7-0.1c-32.7-7.4-72.7-10.1-112.7-7.8c-1.3,0.1-2.6-0.7-3.1-1.9
			c-0.5-1.2-0.2-2.7,0.8-3.6c7.1-6.7,15.9-13.4,24.4-19.8c7.4-5.6,15.1-11.4,21.4-17.1c12.9-11.6,22.4-21.7,29.7-31.8
			c1-1.3,2.9-1.6,4.2-0.7c1.3,1,1.6,2.9,0.7,4.2c-7.6,10.4-17.3,20.9-30.6,32.8C71.8,78.9,64,84.8,56.5,90.5
			c-6.1,4.6-12.4,9.4-18,14.1c37.9-1.6,75.4,1.3,106.4,8.3c1.6,0.4,2.6,2,2.3,3.6C146.8,118,145.5,118.9,144.1,118.9z"/>
	</g>
	<g id="Tail_1_">
		<path id="XMLID_46_" d="M163.2,122.3c-0.3,0-0.7,0-1-0.1c-4.4-0.6-7.1-4.5-8.1-7.9c-1.4-4.6-2-9.6-2.7-14.3
			c-0.3-2.2-0.6-4.3-0.9-6.4c-0.3-1.6,0.8-3.2,2.5-3.5c1.6-0.3,3.2,0.8,3.5,2.5c0.4,2.2,0.7,4.4,1,6.6c0.6,4.6,1.3,9.3,2.5,13.5
			c0.5,1.6,1.7,3.5,3.1,3.7c0.7,0.1,1.6-0.2,2.5-0.8c1.9-1.3,3.7-3.4,5.4-5.3c0.7-0.8,1.4-1.6,2.2-2.4l8.8-9.4
			c1.6-1.7,4.7-5,8.8-4.8c6.6,0.2,9.2,6.9,11,11.4c0.3,0.8,0.6,1.5,0.9,2.2c2.1,4.5,4.4,5.8,9.1,4.8c3.3-0.7,6.7-1.8,10-2.9
			c5.8-1.9,11.7-3.8,18-4c5.6-0.2,11.1,0.9,16.2,2c6.9,1.5,13.8,3.3,20.5,5.3l1.5,0.4c3.8,1.1,7.5,2.2,11.2,2.8
			c11.4,1.7,23.4-1.3,34.1-4c1.6-0.4,3.2,0.6,3.6,2.2c0.4,1.6-0.6,3.2-2.2,3.6c-11.2,2.8-23.9,6-36.4,4.1c-4.1-0.6-8.1-1.8-12-2.9
			l-1.5-0.4c-6.6-1.9-13.4-3.7-20.1-5.2c-4.7-1.1-9.7-2.1-14.6-1.9c-5.5,0.2-10.8,1.9-16.4,3.7c-3.4,1.1-7,2.2-10.6,3
			c-7.4,1.6-12.6-1-15.8-8.1c-0.3-0.7-0.7-1.6-1-2.5c-1.6-4.1-3.2-7.5-5.6-7.6c-1.3-0.1-2.8,1.4-4.2,2.9l-8.8,9.4
			c-0.7,0.7-1.3,1.5-2,2.3c-2,2.3-4,4.6-6.5,6.3C167.1,121.6,165.1,122.3,163.2,122.3z"/>
	</g>
</g>
</svg>
