<?xml version="1.0" encoding="utf-8"?>
<!-- Generator: Adobe Illustrator 19.0.0, SVG Export Plug-In . SVG Version: 6.00 Build 0)  -->
<svg version="1.1" id="Layer_1" xmlns="http://www.w3.org/2000/svg" xmlns:xlink="http://www.w3.org/1999/xlink" x="0px" y="0px"
	 viewBox="0 0 425 206" style="enable-background:new 0 0 425 206;" xml:space="preserve">
<style type="text/css">
	.st0{display:none;}
	.st1{display:inline;fill:#0C0C0C;}
	.st2{fill:#191919;}
</style>
<g id="Logo">
	<g id="Background" class="st0">
		<rect class="st1" width="425" height="206"/>
	</g>
	<g id="P">
		<g>
			<path class="st2" d="M99.1,56c-0.7,0.5-0.5,1.6-0.5,2.4c-0.1,10.3-0.1,20.7,0.1,31c0.2,9.7,0.8,19.4,0.4,29.1
				c-0.4,9.1-1.5,18.2-3.1,27.1c-0.8,4.5-1.8,9-3,13.5c-0.6,2.2-1.2,4.4-1.8,6.6c-0.3,1-1.4,2.9-1,4c0.6,1.8,2-3,2.2-3.5
				c0.7-2.3,1.4-4.7,2-7c1.3-4.7,2.3-9.4,3.2-14.2c1.8-9.6,2.9-19.3,3.6-29c1.4-19.7,0.9-39.4,0.3-59.1
				C101.5,56.6,99.6,55.7,99.1,56z"/>
			<path class="st2" d="M90.5,171.1c-0.3,0-1-0.1-1.3-1.1c-0.4-1.1,0.2-2.4,0.6-3.6c0.1-0.4,0.3-0.7,0.3-0.9l0.6-2
				c0.4-1.5,0.9-3.1,1.3-4.6c1.1-4.4,2.1-8.9,3-13.4c1.6-8.9,2.7-18,3.1-27c0.3-6.8,0.1-13.7-0.1-20.4c-0.1-2.9-0.2-5.7-0.2-8.6
				c-0.2-10.3-0.2-20.7-0.1-31c0-0.1,0-0.3,0-0.4c0-0.9,0-2.1,1-2.8v0c0.8-0.6,2-0.1,2.7,0.2c0.9,0.4,1.3,0.9,1.3,1.5
				c0.5,18.2,1.1,38.9-0.3,59.2c-0.7,10.5-1.9,20-3.6,29.1c-0.9,4.9-2,9.7-3.2,14.3c-0.6,2.4-1.3,4.7-2.1,7l0,0.1
				C92.2,170,91.6,171.1,90.5,171.1C90.5,171.1,90.5,171.1,90.5,171.1z M99.6,57c-0.1,0.3-0.1,0.8-0.1,1c0,0.1,0,0.3,0,0.4
				c-0.1,10.3-0.1,20.7,0.1,31c0.1,2.8,0.1,5.7,0.2,8.5c0.2,6.1,0.4,12.3,0.2,18.5c0-0.2,0-0.3,0-0.5c1.4-20,0.8-40.5,0.3-58.6
				C100.3,57.2,99.9,57,99.6,57z"/>
		</g>
		<g>
			<path class="st2" d="M99.3,114.3c7.9-16.3,23.7-31.2,33.7-46.4c12.7-19.5,13.4-26.4-12.6-26.9c-15.9-0.3-30.4,4-43.3,13.3
				C69.2,60,62.4,66.4,57.2,74.6c-2,3.1-3.8,11-6.5,14.5c0,0-0.1,0-0.1,0c-6.2-30.1,71.6-68.4,92-46.9c11.4,12-13.1,36.2-21.1,46.7
				C117.8,93.9,99,115.1,99.3,114.3z"/>
			<path class="st2" d="M99.3,114.8c-0.1,0-0.1,0-0.2-0.1l-0.4-0.2l0.2-0.4c4.7-9.8,12.3-19.1,19.7-28.1c4.9-6,10-12.3,14-18.4
				c6.4-9.9,10-16.8,7.9-20.8c-1.8-3.5-8-5.1-20-5.3c-16-0.3-30.4,4.1-43,13.2c-8.7,6.3-15,12.8-19.8,20.2c-0.8,1.3-1.7,3.6-2.5,6
				c-1.2,3.2-2.4,6.6-4,8.6l-0.2,0.3l-0.7-0.1l-0.1-0.3c-3.4-16.3,16.5-33.1,34.6-42.5c20.3-10.6,47.1-16.6,58.3-4.9
				c9.8,10.3-5.7,28.9-16.1,41.2c-2,2.4-3.7,4.4-5,6.1c-1.9,2.5-7.7,9.2-12.4,14.6C101,113.5,99.8,114.8,99.3,114.8z M118.8,40.4
				c0.6,0,1.1,0,1.7,0c12.6,0.3,18.9,2,20.9,5.9c2.4,4.5-1.1,11.4-7.9,21.8c-4,6.2-9.2,12.5-14.1,18.5c-6.5,8-13.3,16.3-18,24.9
				c5-5.5,16.8-18.9,19.8-22.9c1.3-1.7,3-3.8,5-6.2c10.1-12,25.3-30.2,16.1-39.9c-10.8-11.4-37.2-5.4-57.1,5.1
				c-17.3,9-36.4,24.9-34.2,40.3c1.2-2,2.3-4.8,3.2-7.4c0.9-2.4,1.7-4.7,2.6-6.1c4.8-7.6,11.2-14.1,20-20.5
				C89.1,44.9,103.2,40.4,118.8,40.4z"/>
		</g>
	</g>
	<g id="K">
		<g>
			<path class="st2" d="M126,49c-3.3,0.7-4.1,2.4-4.9,5.6l-2.1,9.7L116.5,80l-3,31.5c-0.5,5.6-1,11.2-1.5,16.8
				c-1,11.6-2.4,23.1-3.7,34.7c-0.1,0.8-0.2,1.6,0.2,2.3c1.2-1.4,1.6-3.3,1.9-5.1c2.1-13.5,4.1-27.1,5.4-40.8
				c1.4-13.8,2.3-26.8,4-40.1c0.6-4.5,1.1-8.9,1.8-13.4c0.5-3.6,0.9-7.1,1.7-10.6c0.3-1.3,0.7-2.5,1.5-3.6c0.8-1.1,1-0.8,1.8-2
				c0.1-0.2,0.2-0.4,0.1-0.6c-0.1-0.1-0.3-0.1-0.5-0.1C126.1,49,126.1,49,126,49z"/>
			<path class="st2" d="M108.4,166.9l-0.7-1.1c-0.6-1-0.5-2.2-0.4-2.9l0.4-3.7c1.1-10.1,2.3-20.6,3.2-30.9l1.5-16.8l3-31.5l2.5-15.7
				l2.1-9.8c0.8-3.1,1.7-5.5,5.7-6.3l0.2,0c0.8-0.2,1.2,0.1,1.5,0.4c0.4,0.5,0.4,1.1,0.1,1.8c-0.4,0.7-0.8,1-1.1,1.3
				c-0.2,0.2-0.4,0.3-0.7,0.7c-0.7,1-1.1,2.2-1.3,3.3c-0.6,2.5-1,5.1-1.3,7.6c-0.1,1-0.3,2-0.4,3c-0.7,4.4-1.3,8.9-1.8,13.3
				c-1.1,8.9-1.9,17.4-2.7,26.4c-0.4,4.5-0.8,9-1.3,13.7c-1.4,14-3.4,27.8-5.4,40.8c-0.3,1.7-0.6,4-2.1,5.7L108.4,166.9z
				 M124.3,50.7c-1.1,0.7-1.7,1.9-2.2,4.1l-2.1,9.7l-2.5,15.6l-3,31.4l-1.5,16.8c-0.8,8.6-1.7,17.2-2.7,25.7
				c1.7-11.2,3.3-23,4.5-34.8c0.5-4.6,0.9-9.2,1.3-13.7c0.8-9,1.6-17.6,2.7-26.4c0.6-4.4,1.1-9,1.8-13.4c0.1-1,0.3-1.9,0.4-2.9
				c0.3-2.6,0.7-5.2,1.4-7.8c0.3-1.2,0.8-2.7,1.6-3.9C124.1,50.9,124.2,50.8,124.3,50.7z"/>
		</g>
		<g>
			<path class="st2" d="M161.6,66.8c0.7-1,1.6-1.9,2.7-2.4c1.8-0.8,4.3-0.1,3.5,2c-0.8,2.4-2.6,4.6-4.1,6.6
				c-10.2,13.6-22.8,25.9-35.7,37c-6.2,5.4-12.4,10.8-18.7,16.2c-2.8,2.4-5.6,4.9-8.4,7.3c-2,1.8-4,3.5-6,5.3
				c-0.6,0.5-3.3,2.2-2.8,3.2c0.7,1.6,7.4-0.2,8.6-0.4c7.5-1,15.2-1.4,22.8-1.4c10.2-0.1,20.3,0.7,30.4,1.9
				c10.3,1.2,20.7,2.5,31,3.7c1.3,0.2,2.7,0.3,4,0.5c1.5,0.2,3.2,0.7,4.4,1.1c0.2,0.1,0.4,0.2,0.5,0.4l2.4,3.6
				c-20.4-3.1-40.8-6.1-61.3-7c-7.3-0.3-14.6-0.3-21.9-0.1c-7.1,0.2-14.3,1.3-21.3,1c-0.9,0-4.5,0.2-5-0.5c-0.8-1.2,1.6-3.4,2.3-4
				c15-13.1,30.1-25.9,44.2-39.9c5.2-5.2,10.6-10.5,15.3-16.2C153.3,78.9,157.3,72.7,161.6,66.8z"/>
			<path class="st2" d="M197.4,151.9l-1.1-0.2c-20-3-40.7-6.1-61.3-7c-7.2-0.3-14.6-0.3-21.9-0.1c-2.7,0.1-5.4,0.3-8,0.5
				c-4.4,0.3-8.9,0.7-13.4,0.5c-0.2,0-0.5,0-0.9,0c-2.6,0-4,0-4.5-0.7c-1-1.4,1-3.6,2.4-4.7c2.5-2.2,5-4.4,7.5-6.5
				c12.3-10.7,25-21.7,36.7-33.4l1-1c4.8-4.8,9.8-9.8,14.2-15.1c3.2-3.8,6.1-7.9,8.9-11.9c1.4-1.9,2.7-3.8,4.1-5.7l0,0
				c0.7-1,1.6-2,2.9-2.6c1.3-0.6,2.9-0.5,3.7,0.3c0.6,0.6,0.8,1.4,0.5,2.3c-0.7,2.2-2.3,4.2-3.7,6l-0.5,0.7
				c-8.9,11.8-20.3,23.6-35.8,37.1l-33.1,28.8c-0.1,0.1-0.3,0.3-0.6,0.4c-2,1.5-2.2,2-2.1,2.2c0.2,0.4,1.5,0.7,6.9-0.5
				c0.6-0.1,1-0.2,1.3-0.2c6.6-0.9,13.8-1.3,22.9-1.4c9-0.1,18.7,0.5,30.5,1.9c6.9,0.8,13.7,1.6,20.6,2.4c3.5,0.4,7,0.8,10.4,1.3
				l4,0.5c1.2,0.1,2.6,0.5,4.5,1.1c0.3,0.1,0.6,0.3,0.7,0.6L197.4,151.9z M123.1,143.5c4,0,8,0.1,12,0.2c20.2,0.8,40.6,3.9,60.2,6.8
				l-1.8-2.6c-0.1-0.1-0.1-0.1-0.2-0.2c-1.8-0.6-3.2-0.9-4.3-1l-4-0.5c-3.5-0.4-7-0.8-10.4-1.3c-6.9-0.8-13.7-1.6-20.6-2.4
				c-11.8-1.4-21.4-1.9-30.3-1.8c-9,0.1-16.2,0.6-22.7,1.4c-0.2,0-0.7,0.1-1.2,0.2c-3.8,0.8-7.3,1.4-8-0.1c-0.6-1.2,1.2-2.5,2.4-3.4
				c0.2-0.2,0.4-0.3,0.5-0.4l33.1-28.8c15.5-13.4,26.8-25.2,35.6-37l0.5-0.7c1.3-1.7,2.8-3.7,3.5-5.7c0.2-0.6,0.1-1-0.2-1.3
				c-0.6-0.5-1.7-0.6-2.6-0.1c-1,0.5-1.8,1.4-2.5,2.3c-1.4,1.9-2.7,3.8-4.1,5.7c-2.8,4-5.8,8.2-9,12c-4.4,5.3-9.4,10.3-14.3,15.2
				l-1,1c-11.7,11.7-24.4,22.7-36.7,33.4c-2.5,2.2-5,4.4-7.5,6.5c-1.7,1.5-2.6,2.8-2.2,3.4c0.3,0.4,2.8,0.3,3.6,0.3
				c0.4,0,0.7,0,0.9,0c4.4,0.2,8.9-0.2,13.3-0.5c2.6-0.2,5.4-0.4,8-0.5C116.4,143.5,119.7,143.5,123.1,143.5z"/>
		</g>
	</g>
	<g id="Tail">
		<path class="st2" d="M202.2,140.1v-3.8v-1.1c0-1.1,0.5-2.2,1.2-3l0,0c0.8,6.3,1.2,12.7,2.4,18.9c0.2,0.9,0.4,1.8,0.9,2.6
			c0.4,0.6,0.9,1,1.4,1.4c3.5,2.6,8.3,1.5,11.6-0.9c0.9-0.7,1.7-1.5,2.5-2.4c5.2-5.7,10.3-11.5,15.8-16.9c0.9-0.8,2-1.8,3.3-1.5
			c1.3,0.3,2.3,1.6,3,2.7c1.6,2.6,2.7,5.4,4,8.1c1.2,2.5,2.7,6,5.1,7.6c2.6,1.7,5.9,1.5,8.8,0.9c4.8-0.9,9.3-2.8,13.9-4.2
			c4.7-1.5,9.6-2.6,14.5-2.9c0.8-0.1,1.6-0.1,2.4-0.1c5,0,9.9,1.1,14.8,2.1c4.9,1,9.8,2.6,14.6,4c4.5,1.3,9,2.7,13.5,3.9
			c6.1,1.6,12.5,0.7,18.6-0.3c6.8-1.1,13.5-2.5,20.2-4.1l-10.8,1.3c-4.7,0.6-9.4,1.2-14.1,2c-8.3,1.4-16.7-1.3-24.6-3.9
			c-8.2-2.7-16.4-5.4-25-6.5c-4.6-0.6-9.4-0.8-14-0.3c-4.7,0.5-9,2-13.6,3.4c-5,1.5-10.2,3-15.5,3.1c-0.8,0-1.7-0.1-2.4-0.4
			c-1.4-0.6-1.9-2.9-2.4-4.2c-0.7-1.8-1.4-3.6-2.2-5.4c-1.5-3.2-4.1-7.2-7.7-8.2c-0.7-0.2-1.3-0.2-2-0.1c-3,0.4-5.4,2.6-7.5,4.7
			c-3.7,3.8-7.4,7.7-10.9,11.7c-2.5,2.8-7.8,8.7-11.8,5c-1.3-1.2-1.6-3-1.6-4.6c-0.1-2.1-0.3-4.1-0.5-6.2c-0.5-4.4-1.3-8.7-2.3-13
			c-0.2-0.7-0.4-1.4-0.9-2c-1.9-2.1-4.1,1.6-3.9,3c0.1,0.6,0.1,1.3,0.1,1.9c0.2,1.7,0.5,3.5,0.7,5.2
			C201.8,138.5,202,139.3,202.2,140.1z"/>
		<path class="st2" d="M212.9,157.1c-1.7,0-3.5-0.5-5-1.6c-0.7-0.5-1.2-1-1.5-1.6c-0.5-0.8-0.7-1.8-0.9-2.7
			c-0.8-4.1-1.3-8.4-1.7-12.5c-0.2-1.7-0.4-3.5-0.6-5.3c-0.3,0.5-0.4,1.1-0.4,1.7v8.4l-1-3.4c-0.2-0.8-0.4-1.7-0.5-2.5
			c-0.1-0.9-0.2-1.7-0.3-2.6c-0.1-0.9-0.2-1.7-0.3-2.6c0-0.3-0.1-0.7-0.1-1.1c0-0.3,0-0.6-0.1-0.8c-0.1-1.2,1-3.4,2.4-4
			c0.9-0.4,1.7-0.2,2.4,0.6c0.5,0.6,0.8,1.4,1,2.2c1.1,4.3,1.9,8.7,2.3,13.1c0.2,1.9,0.4,3.9,0.5,6.2c0.1,1.5,0.3,3.3,1.5,4.3
			c0.8,0.8,1.8,1.1,2.8,1c3.2-0.2,6.8-4.3,8.3-6c3.5-4,7.1-7.9,10.9-11.7c2.2-2.3,4.7-4.5,7.8-4.9c0.8-0.1,1.5-0.1,2.2,0.1
			c3.8,1,6.4,5.1,8,8.4c0.6,1.3,1.1,2.6,1.6,3.9c0.2,0.5,0.4,1,0.6,1.5c0.1,0.3,0.2,0.6,0.3,0.9c0.4,1.2,0.9,2.6,1.8,3
			c0.6,0.3,1.3,0.4,2.2,0.4c5.3-0.1,10.6-1.7,15.4-3.1c0.9-0.3,1.8-0.5,2.7-0.8c3.7-1.1,7.1-2.2,11-2.6c4.4-0.5,9.2-0.3,14.2,0.3
			c8.2,1.1,15.9,3.5,25.1,6.6c7.9,2.6,16.1,5.3,24.3,3.9c3.5-0.6,7-1.1,10.4-1.5c1.2-0.2,2.4-0.3,3.6-0.5l10.8-1.3l0.2,1
			c-6.9,1.6-13.7,3-20.2,4.1c-6.1,1-12.6,1.9-18.8,0.3c-4.1-1.1-8.2-2.3-12.2-3.5l-3.7-1.1c-4-1.2-8.1-2.5-12.2-3.3l-1.1-0.2
			c-4.4-0.9-9-1.8-13.6-1.8c-0.8,0-1.6,0-2.4,0.1c-4.5,0.3-9.3,1.3-14.3,2.9c-1.4,0.4-2.7,0.9-4.1,1.3c-3.2,1.1-6.5,2.2-9.9,2.9
			c-2.5,0.5-6.2,0.9-9.2-1c-2.4-1.6-3.9-4.8-5.1-7.4l-0.2-0.4c-0.3-0.7-0.6-1.3-0.9-2c-0.9-2.1-1.9-4.2-3.1-6.1
			c-0.6-1-1.5-2.2-2.7-2.5c-1-0.2-2,0.6-2.8,1.4c-5.1,5-9.9,10.3-14.6,15.5l-1.2,1.3c-0.8,0.8-1.6,1.7-2.5,2.4
			C218.1,156.1,215.5,157.1,212.9,157.1z M203.9,131.2l0.1,1c0.3,2.2,0.5,4.4,0.7,6.5c0.4,4.1,0.9,8.3,1.7,12.4
			c0.2,0.9,0.4,1.7,0.8,2.4c0.3,0.5,0.7,0.9,1.3,1.3c3.4,2.5,8,1.3,11-0.9c0.9-0.6,1.6-1.5,2.4-2.3l1.2-1.3
			c4.7-5.2,9.6-10.6,14.7-15.6c0.7-0.7,2.1-2,3.7-1.7c1.5,0.3,2.5,1.7,3.3,2.9c1.3,2,2.2,4.2,3.2,6.3c0.3,0.7,0.6,1.3,0.9,2l0.2,0.4
			c1.1,2.5,2.6,5.6,4.7,7c2,1.3,4.7,1.6,8.4,0.9c3.3-0.7,6.6-1.8,9.8-2.9c1.4-0.5,2.7-0.9,4.1-1.4c5.1-1.6,10-2.6,14.6-2.9
			c0.8-0.1,1.7-0.1,2.4-0.1c4.7,0,9.3,0.9,13.8,1.9l1.1,0.2c4.2,0.9,8.3,2.1,12.3,3.3l3.7,1.1c4,1.2,8.1,2.4,12.2,3.5
			c6,1.6,12.3,0.7,18.3-0.3c3.2-0.5,6.4-1.1,9.7-1.8l-0.2,0c-1.2,0.2-2.4,0.3-3.6,0.5c-3.4,0.4-7,0.9-10.4,1.5
			c-8.5,1.5-16.8-1.3-24.8-3.9c-7.5-2.5-16.1-5.3-24.9-6.5c-4.9-0.7-9.6-0.8-13.9-0.3c-3.8,0.4-7.2,1.4-10.8,2.5
			c-0.9,0.3-1.8,0.5-2.7,0.8c-4.8,1.4-10.2,3-15.6,3.1c-1.1,0-1.9-0.1-2.7-0.4c-1.3-0.6-1.9-2.3-2.3-3.6c-0.1-0.3-0.2-0.6-0.3-0.8
			c-0.2-0.5-0.4-1-0.6-1.5c-0.5-1.3-1-2.6-1.6-3.8c-1.5-3.1-3.9-7-7.3-7.9c-0.5-0.1-1.1-0.2-1.8-0.1c-2.8,0.4-5.1,2.5-7.2,4.6
			c-3.7,3.7-7.4,7.7-10.8,11.6c-1.7,2-5.4,6.2-9,6.4c-1.3,0.1-2.5-0.4-3.5-1.3c-1.4-1.3-1.7-3.2-1.8-5c-0.1-2.3-0.3-4.3-0.5-6.1
			c-0.5-4.3-1.3-8.7-2.3-12.9c-0.2-0.7-0.3-1.3-0.7-1.7c-0.5-0.6-1-0.5-1.3-0.4c-1,0.4-1.9,2.2-1.8,3c0,0.3,0,0.6,0.1,0.9
			c0,0.3,0,0.7,0.1,1c0.1,0.7,0.2,1.3,0.3,2c0.2-0.9,0.6-1.8,1.3-2.5L203.9,131.2z"/>
	</g>
</g>
</svg>
