<?xml version="1.0" standalone="no"?>
<!DOCTYPE svg PUBLIC "-//W3C//DTD SVG 20010904//EN"
 "http://www.w3.org/TR/2001/REC-SVG-20010904/DTD/svg10.dtd">
<svg version="1.0" xmlns="http://www.w3.org/2000/svg"
 width="1000.000000pt" height="1000.000000pt" viewBox="0 0 1000.000000 1000.000000"
 preserveAspectRatio="xMidYMid meet">
<metadata>
Created by potrace 1.11, written by Peter Selinger 2001-2013
</metadata>
<g transform="translate(0.000000,1000.000000) scale(0.100000,-0.100000)"
fill="#000000" stroke="none">
<path d="M4715 9984 c-22 -2 -96 -9 -165 -14 -1479 -126 -2861 -949 -3698
-2202 -467 -699 -728 -1434 -824 -2318 -20 -184 -17 -768 5 -970 67 -606 221
-1148 476 -1675 686 -1415 1994 -2425 3536 -2729 329 -65 371 -69 900 -73 519
-5 585 -2 865 43 901 143 1715 518 2445 1125 129 107 467 445 574 574 593 713
961 1500 1115 2381 53 303 58 389 53 924 -4 535 -8 577 -72 905 -302 1523
-1287 2815 -2679 3512 -412 206 -907 370 -1356 448 -296 51 -473 66 -815 70
-176 2 -338 1 -360 -1z m494 -1559 c469 -74 695 -229 771 -529 35 -139 23
-298 -35 -472 -35 -106 -171 -368 -275 -532 -145 -228 -446 -617 -868 -1122
-104 -124 -122 -150 -122 -180 0 -65 -30 -544 -46 -747 -8 -111 -14 -209 -12
-218 4 -19 241 175 478 389 588 533 1017 991 1401 1496 76 99 116 130 171 130
83 0 146 -55 155 -134 7 -60 -10 -93 -132 -251 -260 -339 -528 -637 -916
-1021 -392 -387 -688 -651 -1054 -939 l-150 -118 -8 -71 c-19 -177 -60 -500
-89 -709 -17 -125 -29 -229 -27 -231 2 -3 182 -9 399 -15 1296 -37 2434 -158
3473 -371 310 -63 336 -70 369 -98 84 -71 74 -185 -22 -250 -44 -30 -69 -28
-330 28 -1087 230 -2437 371 -3669 382 l-274 3 -43 -245 c-23 -135 -65 -359
-93 -498 -53 -267 -64 -298 -121 -327 -41 -21 -118 -19 -157 5 -34 20 -73 85
-73 121 0 11 16 98 35 192 41 207 135 723 135 744 0 14 -25 15 -222 9 -123 -4
-224 -8 -225 -9 -1 -1 -25 -101 -53 -221 -106 -450 -263 -1001 -296 -1038 -32
-36 -100 -60 -145 -53 -69 12 -129 81 -129 149 0 14 25 110 55 213 109 369
253 928 242 939 -2 3 -118 -1 -258 -7 -238 -12 -256 -11 -292 5 -68 33 -99
105 -82 192 5 27 22 52 63 92 97 93 328 292 527 452 105 84 193 157 196 164 8
14 36 312 51 546 16 255 16 1094 -1 1830 -7 338 -12 775 -10 970 4 335 5 357
24 390 22 38 93 80 135 80 43 0 112 -42 132 -80 17 -32 18 -70 18 -535 0 -275
4 -662 10 -860 5 -198 12 -484 16 -636 l6 -276 119 127 c196 211 266 289 347
383 l76 90 0 741 c1 408 -3 860 -7 1006 l-9 265 24 34 c37 54 71 75 126 75 59
0 109 -27 136 -73 28 -49 36 -221 44 -1000 l7 -665 166 205 c387 476 584 761
719 1041 158 326 131 538 -83 643 -267 131 -855 152 -1417 49 -580 -106 -1164
-353 -1645 -695 -338 -239 -665 -559 -843 -821 -27 -40 -61 -84 -75 -96 -50
-47 -144 -46 -195 1 -64 59 -69 135 -17 222 181 300 603 711 1020 994 617 418
1361 688 2065 750 69 6 141 13 160 15 90 10 550 -3 649 -19z"/>
<path d="M4203 5088 c-159 -173 -243 -271 -318 -373 l-52 -70 -6 -215 c-4
-118 -11 -267 -17 -330 -5 -63 -8 -115 -7 -117 3 -2 444 330 465 351 8 8 20
87 32 222 25 280 53 674 48 680 -3 2 -68 -65 -145 -148z"/>
<path d="M3995 3735 c-126 -95 -233 -180 -237 -187 -3 -7 -18 -92 -33 -188
-14 -96 -28 -183 -31 -193 -5 -17 6 -17 213 -11 120 4 220 8 222 10 10 9 105
716 99 734 -1 5 -106 -69 -233 -165z"/>
<path d="M3340 3224 c-105 -87 -104 -84 -29 -84 l66 0 10 63 c6 34 10 63 9 64
-1 1 -26 -19 -56 -43z"/>
</g>
</svg>
